<?xml version="1.0" encoding="UTF-8" ?>
<svg version="1.1" width="120" height="120" xmlns="http://www.w3.org/2000/svg" shape-rendering="crispEdges">
<rect x="0" y="0" width="5" height="5" fill="#FFFFFF" />
<rect x="5" y="0" width="5" height="5" fill="#FFFFFF" />
<rect x="10" y="0" width="5" height="5" fill="#FFFFFF" />
<rect x="15" y="0" width="5" height="5" fill="#FFFFFF" />
<rect x="0" y="5" width="5" height="5" fill="#FFFFFF" />
<rect x="5" y="5" width="5" height="5" fill="#FFFFFF" />
<rect x="10" y="5" width="5" height="5" fill="#FFFFFF" />
<rect x="0" y="10" width="5" height="5" fill="#FFFFFF" />
<rect x="5" y="10" width="5" height="5" fill="#FFFFFF" />
<rect x="65" y="10" width="5" height="5" fill="#FFFFFF" />
<rect x="70" y="10" width="5" height="5" fill="#FFFFFF" />
<rect x="0" y="15" width="5" height="5" fill="#FFFFFF" />
<rect x="20" y="15" width="5" height="5" fill="#FFFFFF" />
<rect x="25" y="15" width="5" height="5" fill="#FFFFFF" />
<rect x="30" y="15" width="5" height="5" fill="#FFFFFF" />
<rect x="35" y="15" width="5" height="5" fill="#FFFFFF" />
<rect x="40" y="15" width="5" height="5" fill="#FFFFFF" />
<rect x="45" y="15" width="5" height="5" fill="#FFFFFF" />
<rect x="50" y="15" width="5" height="5" fill="#FFFFFF" />
<rect x="55" y="15" width="5" height="5" fill="#FFFFFF" />
<rect x="60" y="15" width="5" height="5" fill="#FFFFFF" />
<rect x="70" y="15" width="5" height="5" fill="#FFFFFF" />
<rect x="15" y="20" width="5" height="5" fill="#FFFFFF" />
<rect x="25" y="20" width="5" height="5" fill="#FFFFFF" />
<rect x="50" y="20" width="5" height="5" fill="#FFFFFF" />
<rect x="55" y="20" width="5" height="5" fill="#FFFFFF" />
<rect x="70" y="20" width="5" height="5" fill="#FFFFFF" />
<rect x="15" y="25" width="5" height="5" fill="#FFFFFF" />
<rect x="25" y="25" width="5" height="5" fill="#FFFFFF" />
<rect x="50" y="25" width="5" height="5" fill="#FFFFFF" />
<rect x="70" y="25" width="5" height="5" fill="#FFFFFF" />
<rect x="15" y="30" width="5" height="5" fill="#FFFFFF" />
<rect x="25" y="30" width="5" height="5" fill="#FFFFFF" />
<rect x="50" y="30" width="5" height="5" fill="#FFFFFF" />
<rect x="70" y="30" width="5" height="5" fill="#FFFFFF" />
<rect x="15" y="35" width="5" height="5" fill="#FFFFFF" />
<rect x="25" y="35" width="5" height="5" fill="#FFFFFF" />
<rect x="50" y="35" width="5" height="5" fill="#FFFFFF" />
<rect x="70" y="35" width="5" height="5" fill="#FFFFFF" />
<rect x="15" y="40" width="5" height="5" fill="#FFFFFF" />
<rect x="25" y="40" width="5" height="5" fill="#FFFFFF" />
<rect x="50" y="40" width="5" height="5" fill="#FFFFFF" />
<rect x="70" y="40" width="5" height="5" fill="#FFFFFF" />
<rect x="15" y="45" width="5" height="5" fill="#FFFFFF" />
<rect x="25" y="45" width="5" height="5" fill="#FFFFFF" />
<rect x="50" y="45" width="5" height="5" fill="#FFFFFF" />
<rect x="70" y="45" width="5" height="5" fill="#FFFFFF" />
<rect x="15" y="50" width="5" height="5" fill="#FFFFFF" />
<rect x="25" y="50" width="5" height="5" fill="#FFFFFF" />
<rect x="50" y="50" width="5" height="5" fill="#FFFFFF" />
<rect x="70" y="50" width="5" height="5" fill="#FFFFFF" />
<rect x="15" y="55" width="5" height="5" fill="#FFFFFF" />
<rect x="25" y="55" width="5" height="5" fill="#FFFFFF" />
<rect x="50" y="55" width="5" height="5" fill="#FFFFFF" />
<rect x="60" y="55" width="5" height="5" fill="#FFFFFF" />
<rect x="70" y="55" width="5" height="5" fill="#FFFFFF" />
<rect x="15" y="60" width="5" height="5" fill="#FFFFFF" />
<rect x="25" y="60" width="5" height="5" fill="#FFFFFF" />
<rect x="50" y="60" width="5" height="5" fill="#FFFFFF" />
<rect x="70" y="60" width="5" height="5" fill="#FFFFFF" />
<rect x="15" y="65" width="5" height="5" fill="#FFFFFF" />
<rect x="25" y="65" width="5" height="5" fill="#FFFFFF" />
<rect x="50" y="65" width="5" height="5" fill="#FFFFFF" />
<rect x="70" y="65" width="5" height="5" fill="#FFFFFF" />
<rect x="15" y="70" width="5" height="5" fill="#FFFFFF" />
<rect x="25" y="70" width="5" height="5" fill="#FFFFFF" />
<rect x="50" y="70" width="5" height="5" fill="#FFFFFF" />
<rect x="70" y="70" width="5" height="5" fill="#FFFFFF" />
<rect x="15" y="75" width="5" height="5" fill="#FFFFFF" />
<rect x="25" y="75" width="5" height="5" fill="#FFFFFF" />
<rect x="30" y="75" width="5" height="5" fill="#FFFFFF" />
<rect x="35" y="75" width="5" height="5" fill="#FFFFFF" />
<rect x="40" y="75" width="5" height="5" fill="#FFFFFF" />
<rect x="45" y="75" width="5" height="5" fill="#FFFFFF" />
<rect x="50" y="75" width="5" height="5" fill="#FFFFFF" />
<rect x="70" y="75" width="5" height="5" fill="#FFFFFF" />
<rect x="15" y="80" width="5" height="5" fill="#FFFFFF" />
<rect x="50" y="80" width="5" height="5" fill="#FFFFFF" />
<rect x="70" y="80" width="5" height="5" fill="#FFFFFF" />
<rect x="15" y="85" width="5" height="5" fill="#FFFFFF" />
<rect x="50" y="85" width="5" height="5" fill="#FFFFFF" />
<rect x="70" y="85" width="5" height="5" fill="#FFFFFF" />
<rect x="15" y="90" width="5" height="5" fill="#FFFFFF" />
<rect x="50" y="90" width="5" height="5" fill="#FFFFFF" />
<rect x="55" y="90" width="5" height="5" fill="#FFFFFF" />
<rect x="70" y="90" width="5" height="5" fill="#FFFFFF" />
<rect x="15" y="95" width="5" height="5" fill="#FFFFFF" />
<rect x="20" y="95" width="5" height="5" fill="#FFFFFF" />
<rect x="25" y="95" width="5" height="5" fill="#FFFFFF" />
<rect x="30" y="95" width="5" height="5" fill="#FFFFFF" />
<rect x="35" y="95" width="5" height="5" fill="#FFFFFF" />
<rect x="40" y="95" width="5" height="5" fill="#FFFFFF" />
<rect x="45" y="95" width="5" height="5" fill="#FFFFFF" />
<rect x="50" y="95" width="5" height="5" fill="#FFFFFF" />
<rect x="55" y="95" width="5" height="5" fill="#FFFFFF" />
<rect x="60" y="95" width="5" height="5" fill="#FFFFFF" />
<rect x="70" y="95" width="5" height="5" fill="#FFFFFF" />
<rect x="65" y="100" width="5" height="5" fill="#FFFFFF" />
<rect x="70" y="100" width="5" height="5" fill="#FFFFFF" />
</svg>